<svg xmlns="http://www.w3.org/2000/svg" version="1.1" viewBox="0 0 3671.38 3671.28" style="fill: rgb(67, 68, 12);" role="img" aria-label="Retro Shapes Decorative Element">
  <g id="__id90_sgch6ey3el">
   <g id="__id91_sgch6ey3el"><path d="m1461.1 3309.6l26.5-26.5 1260.6-1260.6 72-72 261-261c-2.1-7.6-4.3-15.3-6.5-22.9-1-3.4-2-6.7-3-10-4.6-15.7-9.5-31.4-14.6-47-2.9-8.8-5.9-17.6-9-26.4-12.3-35.1-25.9-69.9-40.8-104.2l-301 301-1611.7 1611.8-150.51 150.5c29.35 12.7 59.01 24.4 88.91 35.2 11.7 4.2 23.3 8.3 35 12.2 5.1 1.7 10.1 3.4 15.2 5 12.2 4 24.4 7.8 36.7 11.4 11.5 3.5 23.1 6.8 34.7 10l306.5-306.5" style="fill: inherit;"></path></g>
   <g id="__id92_sgch6ey3el"><path d="m2699 2450.8l434.9-434.9c-1.2-21-2.7-42-4.7-63-1-10.4-2.1-20.9-3.3-31.3-2.4-21-5.3-41.9-8.5-62.7-1.7-10.4-3.4-20.8-5.2-31.2-3.7-20.8-7.8-41.5-12.3-62.1l-192.5 192.5-156.6 156.5-1520.1 1520.2c41.3 9 82.8 16.4 124.6 22.1 10.4 1.4 20.9 2.7 31.3 3.9 31.4 3.6 62.9 6.3 94.4 8l108.7-108.7 1109.3-1109.3" style="fill: inherit;"></path></g>
   <g id="__id93_sgch6ey3el"><path d="m3070.8 2552.9l-1052.8 1052.8c82.8-24.7 163.9-56.6 242.5-95.2 14-6.9 27.9-14 41.7-21.3 21.7-11.5 43.2-23.3 64.4-35.9 69.2-41 136-87.8 199.6-140.4 25.4-21 50.4-43 74.7-65.9 12.2-11.4 24.3-23.1 36.2-35 83.3-83.3 155.3-173.7 216-269.3 12.4-19.5 24.1-39.2 35.5-59.1 60.6-105.5 108.1-216.5 142.2-330.7" style="fill: inherit;"></path></g>
   <g id="__id94_sgch6ey3el"><path d="m3136.4 2108.2l-497.1 497.1-1066 1066c106.6-0.4 213.1-11.6 317.8-33.5l1211.8-1211.8c5.5-26.1 10.3-52.4 14.4-78.8 12.4-79.1 18.8-159 19.1-239" style="fill: inherit;"></path></g>
   <g id="__id95_sgch6ey3el"><path d="m209.02 1907.8l272.58-272.6 618.7-618.7 221-220.92 260.6-260.6c-45.9-0.4-91.7 1.31-137.4 4.88-19.6 1.53-39.2 3.31-58.7 5.59-39.1 4.53-78 10.51-116.7 17.99l-1240.6 1240.6c-4.629 24.1-8.652 48.2-12.164 72.5-7.7774 53.6-12.813 107.6-15.02 161.7-0.53084 13.1-0.90194 26.2-1.1129 39.3-0.21091 13.1-0.25779 26.2-0.14451 39.3l208.96-209" style="fill: inherit;"></path></g>
   <g id="__id96_sgch6ey3el"><path d="m2798.4 1130.4c-13.3-16.7-26.9-33.1-40.9-49.4-17-19.6-34.3-39.1-52.3-58l-272.8 272.7-1671.6 1671.6-272.78 272.8c12.36 11.7 24.87 23.3 37.51 34.5 37.93 33.8 77.11 65.5 117.37 95l2191.7-2191.8c-11.7-16-23.9-31.7-36.2-47.4" style="fill: inherit;"></path></g>
   <g id="__id97_sgch6ey3el"><path d="m2049.5 610.28c-17.6-5.66-35.3-10.99-53-16.02l-1607 1607-330.15 330.1c10.033 35.5 21.338 70.7 33.916 105.5 9.434 26.1 19.584 52 30.454 77.7 3.62 8.6 7.32 17.1 11.11 25.7l2070.5-2070.6c-51-22.65-103.1-42.45-155.8-59.42" style="fill: inherit;"></path></g>
   <g id="__id98_sgch6ey3el"><path d="m2385.3 1248l74.3-74.2 198.3-198.35c-5.7-5.53-11.6-10.84-17.3-16.25-43.8-41.1-89.2-79.37-136.3-114.49l-207.4 207.39-69.1 69.1-1641.5 1641.5-138.26 138.3-138.24 138.2c19.87 26.6 40.7 52.8 62.49 78.4 10.89 12.8 22.02 25.5 33.39 38 11.37 12.6 22.98 25 34.83 37.2l1944.8-1944.8" style="fill: inherit;"></path></g>
   <g id="__id99_sgch6ey3el"><path d="m2683.4 1708.2l220.5-220.5 73.5-73.5c-11.3-23.3-23.3-46.2-35.9-69-12.6-22.7-25.7-45.2-39.5-67.5-9.2-14.8-18.7-29.5-28.4-44.1l-279.8 279.9-1895.1 1895c58.31 38.9 118.63 73.6 180.55 103.8l1804.2-1804.1" style="fill: inherit;"></path></g>
   <g id="__id100_sgch6ey3el"><path d="m97.902 1557.1c-14.992 40.5-28.437 81.4-39.98 122.7l1087-1086.9c-141.3 39.38-278.06 98.95-405.88 178.67-42.61 26.56-84.21 55.37-124.65 86.43-53.92 41.41-105.77 86.79-155.14 136.15-139.53 139.55-247.07 298.85-322.99 468.95-9.46 21.2-18.43 42.5-26.9 64-3.93 10-7.73 20-11.438 30" style="fill: inherit;"></path></g>
   <g id="__id101_sgch6ey3el"><path d="m385.48 2110.5l1362.8-1362.8 172.7-172.77c-30.6-7.03-61.4-13.16-92.3-18.34-41.2-6.91-82.7-12.2-124.3-15.8-10.4-0.9-20.8-1.7-31.2-2.4l-1669.7 1669.7c1.3633 20.9 3.168 41.7 5.3867 62.4 1.1094 10.4 2.3203 20.7 3.6363 31.1 2.633 20.7 5.68 41.4 9.141 62 5.188 30.9 11.309 61.7 18.348 92.4l345.47-345.5" style="fill: inherit;"></path></g>
   <g id="__id102_sgch6ey3el"><path d="m410 2844.2l1759.7-1759.6 279.2-279.31c-7.2-4.91-14.5-9.76-21.8-14.54-7.3-4.79-14.6-9.52-21.9-14.17-19-11.97-38.1-23.46-57.4-34.54-25.7-14.75-51.7-28.76-78-41.93l-157.4 157.34-1805.7 1805.8-141.51 141.5c19.22 38.4 40.14 76.2 62.72 113.2 9.04 14.9 18.34 29.6 27.91 44.1 4.79 7.3 9.64 14.6 14.56 21.8l139.62-139.6" style="fill: inherit;"></path></g>
   <g id="__id103_sgch6ey3el"><path d="m3305.8 327.58l-1672.3 1672.3c15.4 16.1 31.4 31.8 47.7 47l1671.6-1671.6c-15.2-16.33-30.9-32.28-47-47.72" style="fill: rgb(237, 30, 121);"></path></g>
   <g id="__id104_sgch6ey3el"><path d="m3090.1 164.13l-1620.1 1620.1c11.7 19.7 23.9 39.1 36.7 58.1l1641.5-1641.5c-19-12.79-38.4-24.98-58.1-36.67" style="fill: rgb(237, 30, 121);"></path></g>
   <g id="__id105_sgch6ey3el"><path d="m3671.4 1182.7c0-27.1-1-54-2.8-80.6l-1260.6 1260.6c26.6 1.8 53.5 2.8 80.6 2.8 3.8 0 7.7-0.1 11.5-0.2l1171.1-1171.1c0.1-3.8 0.2-7.6 0.2-11.5" style="fill: rgb(237, 30, 121);"></path></g>
   <g id="__id106_sgch6ey3el"><path d="m3603.8 787.82l-1510.1 1510.1c23.6 8.3 47.5 16 71.8 22.9l1461.2-1461.2c-6.9-24.25-14.6-48.18-22.9-71.78" style="fill: rgb(237, 30, 121);"></path></g>
   <g id="__id107_sgch6ey3el"><path d="m2496 0.0039062l-1190.1 1190.1c0.2 30.5 1.5 60.8 4 90.8l1276.9-1276.9c-30-2.4727-60.3-3.8242-90.8-3.9961" style="fill: rgb(237, 30, 121);"></path></g>
   <g id="__id108_sgch6ey3el"><path d="m2020.7 96.121l-618.7 618.71c-20.4 47.46-37.9 96.49-52.1 146.9l817.7-817.72c-50.4 14.189-99.4 31.662-146.9 52.111" style="fill: rgb(237, 30, 121);"></path></g>
   <g id="__id109_sgch6ey3el"><path d="m2826.2 48.887l-1471.4 1471.4c7.1 24.1 15 47.8 23.6 71.2l1519-1519c-23.4-8.645-47.2-16.48-71.2-23.613" style="fill: rgb(237, 30, 121);"></path></g>
   <g id="__id110_sgch6ey3el"><path d="m3619.4 1530.4l-783.1 783.1c53.2-16.3 104.8-36.4 154.5-59.7l568.9-568.9c23.3-49.7 43.3-101.3 59.7-154.5" style="fill: rgb(237, 30, 121);"></path></g>
   <g id="__id111_sgch6ey3el"><path d="m3478 534.46l-1637.6 1637.6c19.1 12.6 38.6 24.7 58.6 36.2l1615.2-1615.2c-11.5-19.94-23.6-39.47-36.2-58.64" style="fill: rgb(237, 30, 121);"></path></g>
  </g>
 </svg>